# xmcd
#
# Track frame offsets: 
#        150
#        10122
#        26225
#        39602
#        54605
#        70794
#        80669
#        93361
#        103800
#        116420
#        132129
#        145753
#        155122
#        167873
#        183166
#
# Disc length: 2552 seconds
#
# Revision: 3
# Processed by: cddbd v1.4PL0 Copyright (c) Steve Scherf et al.
# Submitted via: ExactAudioCopy v0.90b4
#
DISCID=ca09f60f
DTITLE=Johnny Dilks and His Visitacion Valley Boys - Acres Of Heartache
DYEAR=1999
DGENRE=Country
TTITLE0=Comin' On Thru
TTITLE1=Lose That Woman Blues
TTITLE2=Mama I'm Comin' Home
TTITLE3=Acres Of Heartache
TTITLE4=Close But So Far Away
TTITLE5=The Check's In The Mail
TTITLE6=Stalin Kicked The Bucket
TTITLE7=Yodel Till I Turn Blue
TTITLE8=The Sunny Side Of The Moon
TTITLE9=Jelly Roll Blues
TTITLE10=One Foot In The Grave
TTITLE11=Lonesome Side Of Town
TTITLE12=My Dumb Heart
TTITLE13=California
TTITLE14=Grey Eagle
EXTD=
EXTT0=
EXTT1=
EXTT2=
EXTT3=
EXTT4=
EXTT5=
EXTT6=
EXTT7=
EXTT8=
EXTT9=
EXTT10=
EXTT11=
EXTT12=
EXTT13=
EXTT14=
PLAYORDER=
